<?xml version="1.0" encoding="UTF-8"?>
<svg xmlns="http://www.w3.org/2000/svg" xmlns:xlink="http://www.w3.org/1999/xlink" width="128px" height="128px" viewBox="0 0 128 128" version="1.1">
<g id="surface1">
<path style=" stroke:none;fill-rule:nonzero;fill:rgb(100%,37.64706%,18.039216%);fill-opacity:1;" d="M 1.703125 110.003906 L 12.175781 120.476562 C 14.449219 122.75 18.132812 122.75 20.40625 120.476562 C 22.675781 118.203125 22.675781 114.523438 20.40625 112.25 L 9.933594 101.777344 C 7.660156 99.503906 3.976562 99.503906 1.703125 101.777344 C -0.566406 104.050781 -0.566406 107.734375 1.703125 110.003906 Z M 15.882812 75.882812 L 21.121094 96.828125 C 21.898438 99.945312 25.058594 101.839844 28.175781 101.058594 C 31.292969 100.28125 33.1875 97.121094 32.40625 94.003906 L 27.171875 73.058594 C 26.390625 69.941406 23.234375 68.046875 20.113281 68.828125 C 17 69.609375 15.101562 72.765625 15.882812 75.882812 Z M 25.351562 101.0625 L 46.296875 106.300781 C 49.414062 107.078125 52.574219 105.183594 53.351562 102.066406 C 54.132812 98.949219 52.238281 95.792969 49.121094 95.011719 L 28.175781 89.773438 C 25.058594 88.996094 21.898438 90.890625 21.121094 94.007812 C 20.339844 97.125 22.234375 100.28125 25.351562 101.0625 Z M 22.648438 91.304688 L 6.941406 107.015625 C 4.667969 109.289062 4.667969 112.96875 6.941406 115.242188 C 9.210938 117.515625 12.894531 117.515625 15.167969 115.242188 L 30.878906 99.53125 C 33.148438 97.261719 33.148438 93.578125 30.878906 91.304688 C 28.605469 89.03125 24.921875 89.03125 22.648438 91.304688 Z M 89.601562 16.871094 L 85.484375 12.757812 L 33.121094 65.121094 C 31.746094 66.496094 31.148438 68.46875 31.53125 70.378906 L 34.148438 83.46875 C 34.613281 85.773438 36.40625 87.570312 38.714844 88.03125 L 51.804688 90.648438 C 53.710938 91.03125 55.683594 90.433594 57.058594 89.058594 L 109.421875 36.699219 C 110.164062 35.957031 110.699219 35.011719 110.953125 33.996094 L 116.191406 13.050781 C 116.683594 11.070312 116.101562 8.96875 114.660156 7.523438 C 113.21875 6.082031 111.113281 5.5 109.136719 5.996094 L 88.191406 11.234375 C 87.175781 11.488281 86.226562 12.023438 85.488281 12.761719 L 89.601562 16.871094 L 91.011719 22.515625 L 102.546875 19.632812 L 100.054688 29.609375 L 51.03125 78.628906 L 44.796875 77.382812 L 43.550781 71.148438 L 93.714844 20.988281 L 89.601562 16.871094 L 91.011719 22.515625 Z M 89.601562 16.871094 "/>
<path style=" stroke:none;fill-rule:nonzero;fill:rgb(100%,37.64706%,18.039216%);fill-opacity:1;" d="M 118.066406 101.777344 L 107.59375 112.25 C 105.324219 114.523438 105.324219 118.203125 107.59375 120.476562 C 109.867188 122.75 113.550781 122.75 115.824219 120.476562 L 126.296875 110.003906 C 128.566406 107.734375 128.566406 104.050781 126.296875 101.777344 C 124.023438 99.503906 120.339844 99.503906 118.066406 101.777344 Z M 100.828125 73.0625 L 95.589844 94.007812 C 94.808594 97.125 96.703125 100.28125 99.824219 101.0625 C 102.941406 101.84375 106.097656 99.949219 106.878906 96.828125 L 112.113281 75.886719 C 112.894531 72.765625 111 69.609375 107.882812 68.828125 C 104.765625 68.046875 101.609375 69.945312 100.828125 73.0625 Z M 97.121094 99.53125 L 112.832031 115.242188 C 115.105469 117.515625 118.789062 117.515625 121.058594 115.242188 C 123.332031 112.96875 123.332031 109.289062 121.058594 107.015625 L 105.351562 91.304688 C 103.078125 89.03125 99.394531 89.03125 97.121094 91.304688 C 94.851562 93.574219 94.851562 97.261719 97.121094 99.53125 Z M 99.824219 89.773438 L 78.878906 95.007812 C 75.761719 95.789062 73.867188 98.945312 74.648438 102.0625 C 75.425781 105.179688 78.585938 107.074219 81.703125 106.296875 L 92.175781 103.675781 L 102.648438 101.058594 C 105.765625 100.28125 107.660156 97.121094 106.878906 94.003906 C 106.101562 90.890625 102.941406 88.996094 99.824219 89.773438 Z M 52.40625 54.066406 L 27.945312 29.609375 L 25.453125 19.632812 L 35.425781 22.125 L 59.886719 46.585938 C 62.160156 48.859375 65.84375 48.859375 68.113281 46.585938 C 70.386719 44.3125 70.386719 40.628906 68.113281 38.359375 L 42.515625 12.757812 C 41.773438 12.015625 40.828125 11.480469 39.8125 11.226562 L 18.863281 5.992188 C 16.886719 5.496094 14.78125 6.078125 13.339844 7.523438 C 11.898438 8.964844 11.316406 11.066406 11.808594 13.046875 L 17.046875 33.992188 C 17.300781 35.007812 17.835938 35.953125 18.578125 36.695312 L 44.175781 62.296875 C 46.449219 64.566406 50.132812 64.566406 52.40625 62.296875 C 54.675781 60.023438 54.675781 56.339844 52.40625 54.066406 Z M 60.46875 78.585938 L 70.941406 89.058594 C 72.316406 90.433594 74.289062 91.03125 76.195312 90.648438 L 89.285156 88.03125 C 91.59375 87.570312 93.386719 85.773438 93.851562 83.46875 L 96.46875 70.378906 C 96.851562 68.46875 96.253906 66.496094 94.878906 65.121094 L 84.40625 54.648438 C 82.132812 52.378906 78.449219 52.378906 76.175781 54.648438 C 73.90625 56.921875 73.90625 60.605469 76.175781 62.878906 L 84.449219 71.148438 L 83.199219 77.382812 L 76.964844 78.628906 L 68.695312 70.359375 C 66.421875 68.085938 62.738281 68.085938 60.46875 70.359375 C 58.195312 72.628906 58.195312 76.316406 60.46875 78.585938 Z M 60.46875 78.585938 "/>
</g>
</svg>
